<?xml version="1.0" standalone="no"?><!DOCTYPE svg PUBLIC "-//W3C//DTD SVG 1.1//EN" "http://www.w3.org/Graphics/SVG/1.1/DTD/svg11.dtd"><svg t="1699708030335" class="icon" viewBox="0 0 1024 1024" version="1.1" xmlns="http://www.w3.org/2000/svg" p-id="22308" xmlns:xlink="http://www.w3.org/1999/xlink" width="24" height="24"><path d="M511.3 512.2m-191.7 0a191.7 191.7 0 1 0 383.4 0 191.7 191.7 0 1 0-383.4 0Z" fill="#FFFFFF" p-id="22309"></path><path d="M846.1 264.6L266.2 844.5c-24.5 24.5-64.6 24.4-89.1 0-24.5-24.5-24.4-64.6 0-89.1L757 175.5c24.5-24.5 64.6-24.4 89.1 0 24.5 24.6 24.4 64.6 0 89.1z" p-id="22310"></path><path d="M266.3 175.5l579.9 579.9c24.5 24.5 24.4 64.6 0 89.1-24.5 24.5-64.6 24.4-89.1 0L177.2 264.6c-24.5-24.5-24.4-64.6 0-89.1s64.5-24.5 89.1 0z" p-id="22311"></path></svg>