<?xml version="1.0" standalone="no"?><!DOCTYPE svg PUBLIC "-//W3C//DTD SVG 1.1//EN" "http://www.w3.org/Graphics/SVG/1.1/DTD/svg11.dtd"><svg t="1699761826057" class="icon" viewBox="0 0 1024 1024" version="1.1" xmlns="http://www.w3.org/2000/svg" p-id="6118" xmlns:xlink="http://www.w3.org/1999/xlink" width="24" height="24"><path d="M192 304A48 48 0 0 1 240 256h544a48 48 0 0 1 0 96h-544A48 48 0 0 1 192 304z" fill="#2c2c2c" p-id="6119"></path><path d="M192 528A48 48 0 0 1 240 480h192a48 48 0 0 1 0 96h-192A48 48 0 0 1 192 528zM544 528a48 48 0 0 1 48-48h192a48 48 0 0 1 0 96h-192a48 48 0 0 1-48-48z" fill="#2c2c2c" p-id="6120"></path><path d="M192 752A48 48 0 0 1 240 704h544a48 48 0 0 1 0 96h-544A48 48 0 0 1 192 752z" fill="#2c2c2c" p-id="6121"></path></svg>